<mxfile host="app.diagrams.net" modified="2024-05-13T18:08:28.995Z" agent="Mozilla/5.0 (Windows NT 10.0; Win64; x64) AppleWebKit/537.36 (KHTML, like Gecko) Chrome/124.0.0.0 Safari/537.36 Edg/124.0.0.0" etag="Vhfq08XxmawctqZOifUa" version="24.4.0" type="device">
  <diagram name="Page-1" id="dJ-lrHc8u4u0q2QaUy1w">
    <mxGraphModel dx="1386" dy="797" grid="1" gridSize="10" guides="1" tooltips="1" connect="1" arrows="1" fold="1" page="1" pageScale="1" pageWidth="827" pageHeight="1169" math="0" shadow="0">
      <root>
        <mxCell id="0" />
        <mxCell id="1" parent="0" />
        <mxCell id="XWFTrxcrhexmeHH34AGu-5" value="Doctor" style="html=1;whiteSpace=wrap;fillColor=#f8cecc;strokeColor=#b85450;" parent="1" vertex="1">
          <mxGeometry x="520" y="601" width="110" height="50" as="geometry" />
        </mxCell>
        <mxCell id="XWFTrxcrhexmeHH34AGu-6" value="Patient" style="html=1;whiteSpace=wrap;fillColor=#f8cecc;strokeColor=#b85450;" parent="1" vertex="1">
          <mxGeometry x="380" y="381" width="110" height="50" as="geometry" />
        </mxCell>
        <mxCell id="XWFTrxcrhexmeHH34AGu-7" value="Hospital" style="html=1;whiteSpace=wrap;fillColor=#f8cecc;strokeColor=#b85450;" parent="1" vertex="1">
          <mxGeometry x="60" y="381" width="110" height="50" as="geometry" />
        </mxCell>
        <mxCell id="XWFTrxcrhexmeHH34AGu-8" value="Diagnostic Center" style="html=1;whiteSpace=wrap;fillColor=#f8cecc;strokeColor=#b85450;" parent="1" vertex="1">
          <mxGeometry x="40" y="816" width="110" height="50" as="geometry" />
        </mxCell>
        <mxCell id="XWFTrxcrhexmeHH34AGu-26" value="Vaccine_Log" style="html=1;whiteSpace=wrap;" parent="1" vertex="1">
          <mxGeometry x="270" y="240" width="110" height="50" as="geometry" />
        </mxCell>
        <mxCell id="XWFTrxcrhexmeHH34AGu-27" value="Allergies_Log" style="html=1;whiteSpace=wrap;" parent="1" vertex="1">
          <mxGeometry x="489.61" y="240" width="110" height="50" as="geometry" />
        </mxCell>
        <mxCell id="XWFTrxcrhexmeHH34AGu-28" value="Doctor Reviews" style="html=1;whiteSpace=wrap;" parent="1" vertex="1">
          <mxGeometry x="520" y="481" width="110" height="50" as="geometry" />
        </mxCell>
        <mxCell id="XWFTrxcrhexmeHH34AGu-29" value="Awards_Honors" style="html=1;whiteSpace=wrap;" parent="1" vertex="1">
          <mxGeometry x="690" y="391" width="110" height="50" as="geometry" />
        </mxCell>
        <mxCell id="XWFTrxcrhexmeHH34AGu-30" value="Speciality" style="html=1;whiteSpace=wrap;" parent="1" vertex="1">
          <mxGeometry x="690" y="541" width="110" height="50" as="geometry" />
        </mxCell>
        <mxCell id="XWFTrxcrhexmeHH34AGu-31" value="Degrees" style="html=1;whiteSpace=wrap;" parent="1" vertex="1">
          <mxGeometry x="690" y="701" width="110" height="50" as="geometry" />
        </mxCell>
        <mxCell id="XWFTrxcrhexmeHH34AGu-32" value="Journals_Publications" style="html=1;whiteSpace=wrap;" parent="1" vertex="1">
          <mxGeometry x="660" y="841" width="140" height="50" as="geometry" />
        </mxCell>
        <mxCell id="XWFTrxcrhexmeHH34AGu-33" value="Appointment" style="html=1;whiteSpace=wrap;" parent="1" vertex="1">
          <mxGeometry x="210" y="461" width="110" height="50" as="geometry" />
        </mxCell>
        <mxCell id="XWFTrxcrhexmeHH34AGu-34" value="Consultations" style="html=1;whiteSpace=wrap;" parent="1" vertex="1">
          <mxGeometry x="60" y="601" width="110" height="50" as="geometry" />
        </mxCell>
        <mxCell id="XWFTrxcrhexmeHH34AGu-61" value="Prescriptions" style="html=1;whiteSpace=wrap;" parent="1" vertex="1">
          <mxGeometry x="310" y="711" width="110" height="50" as="geometry" />
        </mxCell>
        <mxCell id="XWFTrxcrhexmeHH34AGu-66" value="Test" style="html=1;whiteSpace=wrap;" parent="1" vertex="1">
          <mxGeometry x="240" y="851" width="110" height="50" as="geometry" />
        </mxCell>
        <mxCell id="XWFTrxcrhexmeHH34AGu-67" value="Test Log" style="html=1;whiteSpace=wrap;" parent="1" vertex="1">
          <mxGeometry x="140" y="711" width="110" height="50" as="geometry" />
        </mxCell>
        <mxCell id="XWFTrxcrhexmeHH34AGu-76" value="Medicine" style="html=1;whiteSpace=wrap;" parent="1" vertex="1">
          <mxGeometry x="460" y="851" width="110" height="50" as="geometry" />
        </mxCell>
        <mxCell id="XWFTrxcrhexmeHH34AGu-77" value="Prescribed_In" style="html=1;whiteSpace=wrap;" parent="1" vertex="1">
          <mxGeometry x="460" y="711" width="110" height="50" as="geometry" />
        </mxCell>
        <mxCell id="58P7wUS-wSt7yXQtSQoR-1" value="Class Diagram" style="text;html=1;align=center;verticalAlign=middle;whiteSpace=wrap;rounded=0;fontSize=40;" parent="1" vertex="1">
          <mxGeometry x="250" y="50" width="300" height="80" as="geometry" />
        </mxCell>
        <mxCell id="58P7wUS-wSt7yXQtSQoR-2" value="Group Work" style="text;html=1;align=center;verticalAlign=middle;whiteSpace=wrap;rounded=0;" parent="1" vertex="1">
          <mxGeometry x="640" y="1000" width="80" height="30" as="geometry" />
        </mxCell>
        <mxCell id="5TE0PyGPb8ZXy04i5qdm-1" value="" style="endArrow=none;html=1;rounded=0;entryX=0.5;entryY=1;entryDx=0;entryDy=0;exitX=0.25;exitY=0;exitDx=0;exitDy=0;" edge="1" parent="1" source="XWFTrxcrhexmeHH34AGu-6" target="XWFTrxcrhexmeHH34AGu-26">
          <mxGeometry width="50" height="50" relative="1" as="geometry">
            <mxPoint x="380" y="331" as="sourcePoint" />
            <mxPoint x="470" y="251" as="targetPoint" />
            <Array as="points">
              <mxPoint x="408" y="320" />
              <mxPoint x="325" y="320" />
            </Array>
          </mxGeometry>
        </mxCell>
        <mxCell id="5TE0PyGPb8ZXy04i5qdm-2" value="" style="endArrow=none;html=1;rounded=0;exitX=0.75;exitY=0;exitDx=0;exitDy=0;entryX=0.5;entryY=1;entryDx=0;entryDy=0;" edge="1" parent="1" source="XWFTrxcrhexmeHH34AGu-6" target="XWFTrxcrhexmeHH34AGu-27">
          <mxGeometry width="50" height="50" relative="1" as="geometry">
            <mxPoint x="610" y="360" as="sourcePoint" />
            <mxPoint x="680" y="290" as="targetPoint" />
            <Array as="points">
              <mxPoint x="463" y="320" />
              <mxPoint x="545" y="320" />
            </Array>
          </mxGeometry>
        </mxCell>
        <mxCell id="5TE0PyGPb8ZXy04i5qdm-23" value="1" style="edgeLabel;html=1;align=center;verticalAlign=middle;resizable=0;points=[];" vertex="1" connectable="0" parent="5TE0PyGPb8ZXy04i5qdm-2">
          <mxGeometry x="-0.8271" relative="1" as="geometry">
            <mxPoint x="10" y="5" as="offset" />
          </mxGeometry>
        </mxCell>
        <mxCell id="5TE0PyGPb8ZXy04i5qdm-3" value="" style="endArrow=none;html=1;rounded=0;exitX=0.5;exitY=0;exitDx=0;exitDy=0;entryX=1;entryY=0.5;entryDx=0;entryDy=0;" edge="1" parent="1" source="XWFTrxcrhexmeHH34AGu-28" target="XWFTrxcrhexmeHH34AGu-6">
          <mxGeometry width="50" height="50" relative="1" as="geometry">
            <mxPoint x="570" y="441" as="sourcePoint" />
            <mxPoint x="620" y="391" as="targetPoint" />
            <Array as="points">
              <mxPoint x="575" y="406" />
            </Array>
          </mxGeometry>
        </mxCell>
        <mxCell id="5TE0PyGPb8ZXy04i5qdm-4" value="" style="endArrow=none;html=1;rounded=0;entryX=0;entryY=0.5;entryDx=0;entryDy=0;exitX=0.75;exitY=0;exitDx=0;exitDy=0;" edge="1" parent="1" source="XWFTrxcrhexmeHH34AGu-5" target="XWFTrxcrhexmeHH34AGu-29">
          <mxGeometry width="50" height="50" relative="1" as="geometry">
            <mxPoint x="640" y="531" as="sourcePoint" />
            <mxPoint x="690" y="481" as="targetPoint" />
            <Array as="points">
              <mxPoint x="603" y="560" />
              <mxPoint x="660" y="560" />
              <mxPoint x="660" y="416" />
            </Array>
          </mxGeometry>
        </mxCell>
        <mxCell id="5TE0PyGPb8ZXy04i5qdm-5" value="" style="endArrow=none;html=1;rounded=0;entryX=0.5;entryY=1;entryDx=0;entryDy=0;exitX=1;exitY=0.25;exitDx=0;exitDy=0;" edge="1" parent="1" source="XWFTrxcrhexmeHH34AGu-5" target="XWFTrxcrhexmeHH34AGu-30">
          <mxGeometry width="50" height="50" relative="1" as="geometry">
            <mxPoint x="640" y="670" as="sourcePoint" />
            <mxPoint x="690" y="620" as="targetPoint" />
            <Array as="points">
              <mxPoint x="660" y="614" />
              <mxPoint x="745" y="614" />
            </Array>
          </mxGeometry>
        </mxCell>
        <mxCell id="5TE0PyGPb8ZXy04i5qdm-6" value="" style="endArrow=none;html=1;rounded=0;entryX=0.5;entryY=0;entryDx=0;entryDy=0;exitX=1;exitY=0.5;exitDx=0;exitDy=0;" edge="1" parent="1" source="XWFTrxcrhexmeHH34AGu-5" target="XWFTrxcrhexmeHH34AGu-31">
          <mxGeometry width="50" height="50" relative="1" as="geometry">
            <mxPoint x="390" y="680" as="sourcePoint" />
            <mxPoint x="440" y="630" as="targetPoint" />
            <Array as="points">
              <mxPoint x="745" y="626" />
            </Array>
          </mxGeometry>
        </mxCell>
        <mxCell id="5TE0PyGPb8ZXy04i5qdm-7" value="" style="endArrow=none;html=1;rounded=0;entryX=0.5;entryY=0;entryDx=0;entryDy=0;exitX=0.75;exitY=1;exitDx=0;exitDy=0;" edge="1" parent="1" source="XWFTrxcrhexmeHH34AGu-5" target="XWFTrxcrhexmeHH34AGu-32">
          <mxGeometry width="50" height="50" relative="1" as="geometry">
            <mxPoint x="390" y="680" as="sourcePoint" />
            <mxPoint x="440" y="630" as="targetPoint" />
            <Array as="points">
              <mxPoint x="603" y="800" />
              <mxPoint x="730" y="800" />
            </Array>
          </mxGeometry>
        </mxCell>
        <mxCell id="5TE0PyGPb8ZXy04i5qdm-8" value="" style="endArrow=none;html=1;rounded=0;entryX=0;entryY=0.5;entryDx=0;entryDy=0;exitX=1;exitY=0.5;exitDx=0;exitDy=0;" edge="1" parent="1" source="XWFTrxcrhexmeHH34AGu-61" target="XWFTrxcrhexmeHH34AGu-77">
          <mxGeometry width="50" height="50" relative="1" as="geometry">
            <mxPoint x="390" y="680" as="sourcePoint" />
            <mxPoint x="440" y="630" as="targetPoint" />
          </mxGeometry>
        </mxCell>
        <mxCell id="5TE0PyGPb8ZXy04i5qdm-9" value="" style="endArrow=none;html=1;rounded=0;exitX=0.5;exitY=0;exitDx=0;exitDy=0;entryX=0.5;entryY=1;entryDx=0;entryDy=0;" edge="1" parent="1" source="XWFTrxcrhexmeHH34AGu-76" target="XWFTrxcrhexmeHH34AGu-77">
          <mxGeometry width="50" height="50" relative="1" as="geometry">
            <mxPoint x="390" y="680" as="sourcePoint" />
            <mxPoint x="440" y="630" as="targetPoint" />
          </mxGeometry>
        </mxCell>
        <mxCell id="5TE0PyGPb8ZXy04i5qdm-10" value="" style="endArrow=none;html=1;rounded=0;entryX=0.5;entryY=1;entryDx=0;entryDy=0;exitX=0.5;exitY=0;exitDx=0;exitDy=0;" edge="1" parent="1" source="XWFTrxcrhexmeHH34AGu-5" target="XWFTrxcrhexmeHH34AGu-28">
          <mxGeometry width="50" height="50" relative="1" as="geometry">
            <mxPoint x="390" y="560" as="sourcePoint" />
            <mxPoint x="440" y="510" as="targetPoint" />
          </mxGeometry>
        </mxCell>
        <mxCell id="5TE0PyGPb8ZXy04i5qdm-11" value="" style="endArrow=none;html=1;rounded=0;entryX=0;entryY=0.5;entryDx=0;entryDy=0;exitX=0.75;exitY=0;exitDx=0;exitDy=0;" edge="1" parent="1" source="XWFTrxcrhexmeHH34AGu-33" target="XWFTrxcrhexmeHH34AGu-6">
          <mxGeometry width="50" height="50" relative="1" as="geometry">
            <mxPoint x="390" y="560" as="sourcePoint" />
            <mxPoint x="440" y="510" as="targetPoint" />
            <Array as="points">
              <mxPoint x="293" y="406" />
            </Array>
          </mxGeometry>
        </mxCell>
        <mxCell id="5TE0PyGPb8ZXy04i5qdm-12" value="" style="endArrow=none;html=1;rounded=0;entryX=1;entryY=0.5;entryDx=0;entryDy=0;exitX=0.318;exitY=0.04;exitDx=0;exitDy=0;exitPerimeter=0;" edge="1" parent="1" source="XWFTrxcrhexmeHH34AGu-33" target="XWFTrxcrhexmeHH34AGu-7">
          <mxGeometry width="50" height="50" relative="1" as="geometry">
            <mxPoint x="390" y="560" as="sourcePoint" />
            <mxPoint x="440" y="510" as="targetPoint" />
            <Array as="points">
              <mxPoint x="245" y="406" />
            </Array>
          </mxGeometry>
        </mxCell>
        <mxCell id="5TE0PyGPb8ZXy04i5qdm-13" value="" style="endArrow=none;html=1;rounded=0;exitX=0.5;exitY=0;exitDx=0;exitDy=0;entryX=0.5;entryY=1;entryDx=0;entryDy=0;" edge="1" parent="1" source="XWFTrxcrhexmeHH34AGu-34" target="XWFTrxcrhexmeHH34AGu-7">
          <mxGeometry width="50" height="50" relative="1" as="geometry">
            <mxPoint x="390" y="560" as="sourcePoint" />
            <mxPoint x="440" y="510" as="targetPoint" />
          </mxGeometry>
        </mxCell>
        <mxCell id="5TE0PyGPb8ZXy04i5qdm-14" value="" style="endArrow=none;html=1;rounded=0;exitX=0;exitY=0.5;exitDx=0;exitDy=0;entryX=0.5;entryY=1;entryDx=0;entryDy=0;" edge="1" parent="1" source="XWFTrxcrhexmeHH34AGu-66" target="XWFTrxcrhexmeHH34AGu-67">
          <mxGeometry width="50" height="50" relative="1" as="geometry">
            <mxPoint x="390" y="680" as="sourcePoint" />
            <mxPoint x="440" y="630" as="targetPoint" />
            <Array as="points">
              <mxPoint x="195" y="876" />
            </Array>
          </mxGeometry>
        </mxCell>
        <mxCell id="5TE0PyGPb8ZXy04i5qdm-15" value="" style="endArrow=none;html=1;rounded=0;exitX=1;exitY=0.5;exitDx=0;exitDy=0;entryX=0;entryY=0.5;entryDx=0;entryDy=0;" edge="1" parent="1" source="XWFTrxcrhexmeHH34AGu-67" target="XWFTrxcrhexmeHH34AGu-61">
          <mxGeometry width="50" height="50" relative="1" as="geometry">
            <mxPoint x="390" y="680" as="sourcePoint" />
            <mxPoint x="440" y="630" as="targetPoint" />
          </mxGeometry>
        </mxCell>
        <mxCell id="5TE0PyGPb8ZXy04i5qdm-16" value="" style="endArrow=none;html=1;rounded=0;exitX=0.5;exitY=0;exitDx=0;exitDy=0;entryX=0;entryY=0.5;entryDx=0;entryDy=0;" edge="1" parent="1" source="XWFTrxcrhexmeHH34AGu-8" target="XWFTrxcrhexmeHH34AGu-67">
          <mxGeometry width="50" height="50" relative="1" as="geometry">
            <mxPoint x="390" y="680" as="sourcePoint" />
            <mxPoint x="440" y="630" as="targetPoint" />
            <Array as="points">
              <mxPoint x="95" y="736" />
            </Array>
          </mxGeometry>
        </mxCell>
        <mxCell id="5TE0PyGPb8ZXy04i5qdm-17" value="" style="endArrow=none;html=1;rounded=0;entryX=0;entryY=0.5;entryDx=0;entryDy=0;exitX=1;exitY=0.5;exitDx=0;exitDy=0;" edge="1" parent="1" source="XWFTrxcrhexmeHH34AGu-34" target="XWFTrxcrhexmeHH34AGu-5">
          <mxGeometry width="50" height="50" relative="1" as="geometry">
            <mxPoint x="390" y="680" as="sourcePoint" />
            <mxPoint x="440" y="630" as="targetPoint" />
          </mxGeometry>
        </mxCell>
        <mxCell id="5TE0PyGPb8ZXy04i5qdm-18" value="" style="endArrow=none;html=1;rounded=0;entryX=0;entryY=0.25;entryDx=0;entryDy=0;exitX=0.5;exitY=1;exitDx=0;exitDy=0;" edge="1" parent="1" source="XWFTrxcrhexmeHH34AGu-33" target="XWFTrxcrhexmeHH34AGu-5">
          <mxGeometry width="50" height="50" relative="1" as="geometry">
            <mxPoint x="390" y="680" as="sourcePoint" />
            <mxPoint x="440" y="630" as="targetPoint" />
            <Array as="points">
              <mxPoint x="265" y="610" />
            </Array>
          </mxGeometry>
        </mxCell>
        <mxCell id="5TE0PyGPb8ZXy04i5qdm-19" value="" style="endArrow=none;html=1;rounded=0;entryX=0.445;entryY=1.04;entryDx=0;entryDy=0;entryPerimeter=0;exitX=1;exitY=0.25;exitDx=0;exitDy=0;" edge="1" parent="1" source="XWFTrxcrhexmeHH34AGu-61" target="XWFTrxcrhexmeHH34AGu-5">
          <mxGeometry width="50" height="50" relative="1" as="geometry">
            <mxPoint x="390" y="680" as="sourcePoint" />
            <mxPoint x="440" y="630" as="targetPoint" />
            <Array as="points">
              <mxPoint x="440" y="724" />
              <mxPoint x="440" y="680" />
              <mxPoint x="569" y="680" />
            </Array>
          </mxGeometry>
        </mxCell>
        <mxCell id="5TE0PyGPb8ZXy04i5qdm-20" value="" style="endArrow=none;html=1;rounded=0;entryX=0.5;entryY=1;entryDx=0;entryDy=0;exitX=0.75;exitY=0;exitDx=0;exitDy=0;" edge="1" parent="1" source="XWFTrxcrhexmeHH34AGu-61" target="XWFTrxcrhexmeHH34AGu-6">
          <mxGeometry width="50" height="50" relative="1" as="geometry">
            <mxPoint x="370" y="690" as="sourcePoint" />
            <mxPoint x="440" y="630" as="targetPoint" />
            <Array as="points">
              <mxPoint x="393" y="660" />
              <mxPoint x="435" y="660" />
            </Array>
          </mxGeometry>
        </mxCell>
        <mxCell id="5TE0PyGPb8ZXy04i5qdm-21" value="" style="endArrow=none;html=1;rounded=0;entryX=0.191;entryY=1.02;entryDx=0;entryDy=0;entryPerimeter=0;exitX=0.75;exitY=0;exitDx=0;exitDy=0;" edge="1" parent="1" source="XWFTrxcrhexmeHH34AGu-67" target="XWFTrxcrhexmeHH34AGu-6">
          <mxGeometry width="50" height="50" relative="1" as="geometry">
            <mxPoint x="390" y="680" as="sourcePoint" />
            <mxPoint x="440" y="630" as="targetPoint" />
            <Array as="points">
              <mxPoint x="223" y="680" />
              <mxPoint x="223" y="640" />
              <mxPoint x="320" y="640" />
              <mxPoint x="400" y="640" />
            </Array>
          </mxGeometry>
        </mxCell>
        <mxCell id="5TE0PyGPb8ZXy04i5qdm-24" value="1..*" style="edgeLabel;html=1;align=center;verticalAlign=middle;resizable=0;points=[];" vertex="1" connectable="0" parent="1">
          <mxGeometry x="487.61475024360675" y="369.0004702799847" as="geometry">
            <mxPoint x="71" y="-71" as="offset" />
          </mxGeometry>
        </mxCell>
        <mxCell id="5TE0PyGPb8ZXy04i5qdm-25" value="1" style="edgeLabel;html=1;align=center;verticalAlign=middle;resizable=0;points=[];" vertex="1" connectable="0" parent="1">
          <mxGeometry x="484.00475024360674" y="394.0004702799847" as="geometry">
            <mxPoint x="12" y="1" as="offset" />
          </mxGeometry>
        </mxCell>
        <mxCell id="5TE0PyGPb8ZXy04i5qdm-27" value="1..*" style="edgeLabel;html=1;align=center;verticalAlign=middle;resizable=0;points=[];" vertex="1" connectable="0" parent="1">
          <mxGeometry x="575.0047502436067" y="470.0004702799847" as="geometry">
            <mxPoint x="12" y="1" as="offset" />
          </mxGeometry>
        </mxCell>
        <mxCell id="5TE0PyGPb8ZXy04i5qdm-28" value="1..*" style="edgeLabel;html=1;align=center;verticalAlign=middle;resizable=0;points=[];" vertex="1" connectable="0" parent="1">
          <mxGeometry x="575.0047502436067" y="541.0004702799847" as="geometry">
            <mxPoint x="12" y="1" as="offset" />
          </mxGeometry>
        </mxCell>
        <mxCell id="5TE0PyGPb8ZXy04i5qdm-29" value="1" style="edgeLabel;html=1;align=center;verticalAlign=middle;resizable=0;points=[];" vertex="1" connectable="0" parent="1">
          <mxGeometry x="550.0047502436067" y="591.0004702799847" as="geometry">
            <mxPoint x="12" y="1" as="offset" />
          </mxGeometry>
        </mxCell>
        <mxCell id="5TE0PyGPb8ZXy04i5qdm-30" value="1" style="edgeLabel;html=1;align=center;verticalAlign=middle;resizable=0;points=[];" vertex="1" connectable="0" parent="1">
          <mxGeometry x="598.0047502436067" y="592.0004702799847" as="geometry">
            <mxPoint x="12" y="1" as="offset" />
          </mxGeometry>
        </mxCell>
        <mxCell id="5TE0PyGPb8ZXy04i5qdm-31" value="1..*" style="edgeLabel;html=1;align=center;verticalAlign=middle;resizable=0;points=[];" vertex="1" connectable="0" parent="1">
          <mxGeometry x="663.0047502436067" y="406.0004702799847" as="geometry">
            <mxPoint x="12" y="1" as="offset" />
          </mxGeometry>
        </mxCell>
        <mxCell id="5TE0PyGPb8ZXy04i5qdm-32" value="1..3" style="edgeLabel;html=1;align=center;verticalAlign=middle;resizable=0;points=[];" vertex="1" connectable="0" parent="1">
          <mxGeometry x="745.0047502436067" y="600.0004702799847" as="geometry">
            <mxPoint x="12" y="1" as="offset" />
          </mxGeometry>
        </mxCell>
        <mxCell id="5TE0PyGPb8ZXy04i5qdm-33" value="1..10" style="edgeLabel;html=1;align=center;verticalAlign=middle;resizable=0;points=[];" vertex="1" connectable="0" parent="1">
          <mxGeometry x="749.0047502436067" y="690.0004702799847" as="geometry">
            <mxPoint x="12" y="1" as="offset" />
          </mxGeometry>
        </mxCell>
        <mxCell id="5TE0PyGPb8ZXy04i5qdm-34" value="1" style="edgeLabel;html=1;align=center;verticalAlign=middle;resizable=0;points=[];" vertex="1" connectable="0" parent="1">
          <mxGeometry x="630.0047502436067" y="640.0004702799847" as="geometry">
            <mxPoint x="12" y="1" as="offset" />
          </mxGeometry>
        </mxCell>
        <mxCell id="5TE0PyGPb8ZXy04i5qdm-35" value="1..*" style="edgeLabel;html=1;align=center;verticalAlign=middle;resizable=0;points=[];" vertex="1" connectable="0" parent="1">
          <mxGeometry x="625.0047502436067" y="604.0004702799847" as="geometry">
            <mxPoint x="12" y="1" as="offset" />
          </mxGeometry>
        </mxCell>
        <mxCell id="5TE0PyGPb8ZXy04i5qdm-36" value="1" style="edgeLabel;html=1;align=center;verticalAlign=middle;resizable=0;points=[];" vertex="1" connectable="0" parent="1">
          <mxGeometry x="600.0047502436067" y="660.0004702799847" as="geometry">
            <mxPoint x="12" y="1" as="offset" />
          </mxGeometry>
        </mxCell>
        <mxCell id="5TE0PyGPb8ZXy04i5qdm-37" value="1..*" style="edgeLabel;html=1;align=center;verticalAlign=middle;resizable=0;points=[];" vertex="1" connectable="0" parent="1">
          <mxGeometry x="730.0047502436067" y="830.0004702799847" as="geometry">
            <mxPoint x="12" y="1" as="offset" />
          </mxGeometry>
        </mxCell>
        <mxCell id="5TE0PyGPb8ZXy04i5qdm-38" value="1..*" style="edgeLabel;html=1;align=center;verticalAlign=middle;resizable=0;points=[];" vertex="1" connectable="0" parent="1">
          <mxGeometry x="515.0047502436067" y="841.0004702799847" as="geometry">
            <mxPoint x="12" y="1" as="offset" />
          </mxGeometry>
        </mxCell>
        <mxCell id="5TE0PyGPb8ZXy04i5qdm-39" value="1..*" style="edgeLabel;html=1;align=center;verticalAlign=middle;resizable=0;points=[];" vertex="1" connectable="0" parent="1">
          <mxGeometry x="515.0047502436067" y="770.0004702799847" as="geometry">
            <mxPoint x="12" y="1" as="offset" />
          </mxGeometry>
        </mxCell>
        <mxCell id="5TE0PyGPb8ZXy04i5qdm-40" value="1..*" style="edgeLabel;html=1;align=center;verticalAlign=middle;resizable=0;points=[];" vertex="1" connectable="0" parent="1">
          <mxGeometry x="437.00475024360674" y="726.0004702799847" as="geometry">
            <mxPoint x="12" y="1" as="offset" />
          </mxGeometry>
        </mxCell>
        <mxCell id="5TE0PyGPb8ZXy04i5qdm-41" value="1..*" style="edgeLabel;html=1;align=center;verticalAlign=middle;resizable=0;points=[];" vertex="1" connectable="0" parent="1">
          <mxGeometry x="418.00475024360674" y="743.0004702799847" as="geometry">
            <mxPoint x="12" y="1" as="offset" />
          </mxGeometry>
        </mxCell>
        <mxCell id="5TE0PyGPb8ZXy04i5qdm-42" value="1..*" style="edgeLabel;html=1;align=center;verticalAlign=middle;resizable=0;points=[];" vertex="1" connectable="0" parent="1">
          <mxGeometry x="210.00475024360674" y="866.0004702799847" as="geometry">
            <mxPoint x="12" y="1" as="offset" />
          </mxGeometry>
        </mxCell>
        <mxCell id="5TE0PyGPb8ZXy04i5qdm-43" value="1..*" style="edgeLabel;html=1;align=center;verticalAlign=middle;resizable=0;points=[];" vertex="1" connectable="0" parent="1">
          <mxGeometry x="195.00475024360674" y="770.0004702799847" as="geometry">
            <mxPoint x="12" y="1" as="offset" />
          </mxGeometry>
        </mxCell>
        <mxCell id="5TE0PyGPb8ZXy04i5qdm-44" value="1..*" style="edgeLabel;html=1;align=center;verticalAlign=middle;resizable=0;points=[];" vertex="1" connectable="0" parent="1">
          <mxGeometry x="95.00475024360674" y="805.0004702799847" as="geometry">
            <mxPoint x="12" y="1" as="offset" />
          </mxGeometry>
        </mxCell>
        <mxCell id="5TE0PyGPb8ZXy04i5qdm-45" value="1..*" style="edgeLabel;html=1;align=center;verticalAlign=middle;resizable=0;points=[];" vertex="1" connectable="0" parent="1">
          <mxGeometry x="115.00475024360674" y="726.0004702799847" as="geometry">
            <mxPoint x="12" y="1" as="offset" />
          </mxGeometry>
        </mxCell>
        <mxCell id="5TE0PyGPb8ZXy04i5qdm-46" value="1..*" style="edgeLabel;html=1;align=center;verticalAlign=middle;resizable=0;points=[];" vertex="1" connectable="0" parent="1">
          <mxGeometry x="115.00475024360674" y="591.0004702799847" as="geometry">
            <mxPoint x="12" y="1" as="offset" />
          </mxGeometry>
        </mxCell>
        <mxCell id="5TE0PyGPb8ZXy04i5qdm-47" value="1" style="edgeLabel;html=1;align=center;verticalAlign=middle;resizable=0;points=[];" vertex="1" connectable="0" parent="1">
          <mxGeometry x="110.00475024360674" y="437.0004702799847" as="geometry">
            <mxPoint x="12" y="1" as="offset" />
          </mxGeometry>
        </mxCell>
        <mxCell id="5TE0PyGPb8ZXy04i5qdm-48" value="1" style="edgeLabel;html=1;align=center;verticalAlign=middle;resizable=0;points=[];" vertex="1" connectable="0" parent="1">
          <mxGeometry x="164.00475024360674" y="394.0004702799847" as="geometry">
            <mxPoint x="12" y="1" as="offset" />
          </mxGeometry>
        </mxCell>
        <mxCell id="5TE0PyGPb8ZXy04i5qdm-49" value="1" style="edgeLabel;html=1;align=center;verticalAlign=middle;resizable=0;points=[];" vertex="1" connectable="0" parent="1">
          <mxGeometry x="350.00475024360674" y="391.0004702799847" as="geometry">
            <mxPoint x="12" y="1" as="offset" />
          </mxGeometry>
        </mxCell>
        <mxCell id="5TE0PyGPb8ZXy04i5qdm-50" value="1" style="edgeLabel;html=1;align=center;verticalAlign=middle;resizable=0;points=[];" vertex="1" connectable="0" parent="1">
          <mxGeometry x="383.00475024360674" y="370.0004702799847" as="geometry">
            <mxPoint x="12" y="1" as="offset" />
          </mxGeometry>
        </mxCell>
        <mxCell id="5TE0PyGPb8ZXy04i5qdm-51" value="1..*" style="edgeLabel;html=1;align=center;verticalAlign=middle;resizable=0;points=[];" vertex="1" connectable="0" parent="1">
          <mxGeometry x="220.00475024360674" y="450.0004702799847" as="geometry">
            <mxPoint x="12" y="1" as="offset" />
          </mxGeometry>
        </mxCell>
        <mxCell id="5TE0PyGPb8ZXy04i5qdm-52" value="1..*" style="edgeLabel;html=1;align=center;verticalAlign=middle;resizable=0;points=[];" vertex="1" connectable="0" parent="1">
          <mxGeometry x="290.00475024360674" y="450.0004702799847" as="geometry">
            <mxPoint x="12" y="1" as="offset" />
          </mxGeometry>
        </mxCell>
        <mxCell id="5TE0PyGPb8ZXy04i5qdm-53" value="1..*" style="edgeLabel;html=1;align=center;verticalAlign=middle;resizable=0;points=[];" vertex="1" connectable="0" parent="1">
          <mxGeometry x="370.00475024360674" y="441.0004702799847" as="geometry">
            <mxPoint x="12" y="1" as="offset" />
          </mxGeometry>
        </mxCell>
        <mxCell id="5TE0PyGPb8ZXy04i5qdm-54" value="1" style="edgeLabel;html=1;align=center;verticalAlign=middle;resizable=0;points=[];" vertex="1" connectable="0" parent="1">
          <mxGeometry x="435.00475024360674" y="441.0004702799847" as="geometry">
            <mxPoint x="12" y="1" as="offset" />
          </mxGeometry>
        </mxCell>
        <mxCell id="5TE0PyGPb8ZXy04i5qdm-55" value="1..*" style="edgeLabel;html=1;align=center;verticalAlign=middle;resizable=0;points=[];" vertex="1" connectable="0" parent="1">
          <mxGeometry x="195.00475024360674" y="701.0004702799847" as="geometry">
            <mxPoint x="12" y="1" as="offset" />
          </mxGeometry>
        </mxCell>
        <mxCell id="5TE0PyGPb8ZXy04i5qdm-56" value="1..*" style="edgeLabel;html=1;align=center;verticalAlign=middle;resizable=0;points=[];" vertex="1" connectable="0" parent="1">
          <mxGeometry x="365.00475024360674" y="701.0004702799847" as="geometry">
            <mxPoint x="12" y="1" as="offset" />
          </mxGeometry>
        </mxCell>
        <mxCell id="5TE0PyGPb8ZXy04i5qdm-57" value="1..*" style="edgeLabel;html=1;align=center;verticalAlign=middle;resizable=0;points=[];" vertex="1" connectable="0" parent="1">
          <mxGeometry x="416.00475024360674" y="713.0004702799847" as="geometry">
            <mxPoint x="12" y="1" as="offset" />
          </mxGeometry>
        </mxCell>
        <mxCell id="5TE0PyGPb8ZXy04i5qdm-58" value="1" style="edgeLabel;html=1;align=center;verticalAlign=middle;resizable=0;points=[];" vertex="1" connectable="0" parent="1">
          <mxGeometry x="544.0047502436067" y="660.0004702799847" as="geometry">
            <mxPoint x="12" y="1" as="offset" />
          </mxGeometry>
        </mxCell>
        <mxCell id="5TE0PyGPb8ZXy04i5qdm-59" value="1" style="edgeLabel;html=1;align=center;verticalAlign=middle;resizable=0;points=[];" vertex="1" connectable="0" parent="1">
          <mxGeometry x="496.00475024360674" y="603.0004702799847" as="geometry">
            <mxPoint x="12" y="1" as="offset" />
          </mxGeometry>
        </mxCell>
        <mxCell id="5TE0PyGPb8ZXy04i5qdm-60" value="1..*" style="edgeLabel;html=1;align=center;verticalAlign=middle;resizable=0;points=[];" vertex="1" connectable="0" parent="1">
          <mxGeometry x="494.61475024360675" y="633.0004702799847" as="geometry">
            <mxPoint x="12" y="1" as="offset" />
          </mxGeometry>
        </mxCell>
        <mxCell id="5TE0PyGPb8ZXy04i5qdm-61" value="1..*" style="edgeLabel;html=1;align=center;verticalAlign=middle;resizable=0;points=[];" vertex="1" connectable="0" parent="1">
          <mxGeometry x="170.00475024360674" y="612.0004702799847" as="geometry">
            <mxPoint x="12" y="1" as="offset" />
          </mxGeometry>
        </mxCell>
        <mxCell id="5TE0PyGPb8ZXy04i5qdm-62" value="1..*" style="edgeLabel;html=1;align=center;verticalAlign=middle;resizable=0;points=[];" vertex="1" connectable="0" parent="1">
          <mxGeometry x="265.00475024360674" y="520.0004702799847" as="geometry">
            <mxPoint x="12" y="1" as="offset" />
          </mxGeometry>
        </mxCell>
        <mxCell id="5TE0PyGPb8ZXy04i5qdm-63" value="1..*" style="edgeLabel;html=1;align=center;verticalAlign=middle;resizable=0;points=[];" vertex="1" connectable="0" parent="1">
          <mxGeometry x="298.00475024360674" y="299.0004702799847" as="geometry">
            <mxPoint x="12" y="1" as="offset" />
          </mxGeometry>
        </mxCell>
        <mxCell id="5TE0PyGPb8ZXy04i5qdm-64" value="1..*" style="edgeLabel;html=1;align=center;verticalAlign=middle;resizable=0;points=[];" vertex="1" connectable="0" parent="1">
          <mxGeometry x="280.00475024360674" y="726.0004702799847" as="geometry">
            <mxPoint x="12" y="1" as="offset" />
          </mxGeometry>
        </mxCell>
        <mxCell id="5TE0PyGPb8ZXy04i5qdm-65" value="1..*" style="edgeLabel;html=1;align=center;verticalAlign=middle;resizable=0;points=[];" vertex="1" connectable="0" parent="1">
          <mxGeometry x="249.00475024360674" y="745.0004702799847" as="geometry">
            <mxPoint x="12" y="1" as="offset" />
          </mxGeometry>
        </mxCell>
      </root>
    </mxGraphModel>
  </diagram>
</mxfile>
